<svg xmlns="http://www.w3.org/2000/svg" fill="none" viewBox="0 0 21 21"><g clip-path="url(#a)"><path fill="#6DA544" d="M10.667 21c5.707 0 10.334-4.627 10.334-10.334C21 4.96 16.374.333 10.667.333S.334 4.96.334 10.666C.334 16.373 4.96 21 10.667 21Z"/><path fill="#FFDA44" d="m10.667 4.377 8.536 6.29-8.536 6.29-8.536-6.29 8.536-6.29Z"/><path fill="#F1F1F1" d="M10.667 14.26a3.594 3.594 0 1 0 0-7.188 3.594 3.594 0 0 0 0 7.189Z"/><path fill="#342C8A" d="M8.87 10.442c-.625 0-1.228.095-1.796.271a3.594 3.594 0 0 0 6.537 2.015 6.057 6.057 0 0 0-4.74-2.286ZM14.195 11.355a3.594 3.594 0 0 0-6.83-2.107 7.415 7.415 0 0 1 6.83 2.107Z"/></g><defs><clipPath id="a"><path fill="#fff" d="M.333.333H21V21H.333z"/></clipPath></defs></svg>