<svg xmlns="http://www.w3.org/2000/svg" fill="none" viewBox="0 0 2237 508"><path fill="#E7000B" d="M0 254V0h1722v44H44v420h1678v44H0V254Z"/><path fill="#E7000B" d="M1270.5 374.5c-30.2-4.8-51.3-16.5-71-39-9.5-10.8-19.5-30.8-22.5-45-.5-2.2-1.6-7.1-2.4-11-2.1-9.2-2.2-41.5-.1-53.5 3.6-21.7 9.9-38.2 20.8-54.4 7.2-10.7 20.4-24.2 31.6-32 23-16.3 56.3-24.9 89.6-23.2 20.9 1.1 29.3 2.5 49 8.3l3 .9.3 26c.1 14.2 0 26.5-.3 27.2-.4 1.1-1.2 1-3.8-.6-9.7-5.7-25.5-10.2-42.9-12.3-17.4-2.1-38.2 1.7-51.9 9.4-17.3 9.8-30.4 28.2-35.5 49.8-2.2 9.2-2.5 34.6-.5 42.9 3.9 16.6 9.6 27.5 19.5 37.8 7.8 8.1 14.7 12.7 24.6 16.5 9.8 3.9 17.2 5 31.5 5 19 0 33.3-3.2 51.3-11.4 3.6-1.6 6.9-2.9 7.4-2.9.4 0 .7 11.2.6 25.2l-.3 25.3-4.6 2.1c-6 2.9-22.8 7-35.9 8.9-12.9 1.8-46.1 1.8-57.5 0ZM149 246.5V121h55.9c30.7.1 56.1.4 56.5.7.4.4 1.4.7 2.4.8 2.6.2 12 2.5 19.2 4.8 18.8 5.7 33.2 17.3 41 32.7 6.9 13.7 8 18.4 8.7 38 .5 14-.2 19.1-3.9 30.5-6.2 18.5-21 35.7-38.8 44.9-7.5 3.9-22.1 9-30 10.5-7.4 1.4-31.1 3.1-43.7 3.1H206l-.2 42.3-.3 42.2-28.2.3-28.3.2V246.5Zm100.5-6.5c5.7-2 8.2-3.6 13.1-8.5 8.8-8.6 10.7-14.1 10.2-29.5-.3-10.2-.6-12.2-3.1-17.2-4.2-8.6-10.7-13.9-20.9-17.1-7.3-2.3-10.3-2.6-25.3-2.9l-17-.3-.3 39.3-.2 39.4 18.2-.4c16.2-.3 19.1-.7 25.3-2.8ZM370 246.5V120.9l55.8.4c33.9.3 58.2.8 62.2 1.5 27.6 4.7 46.4 15.4 55.6 31.8 7.6 13.5 10.2 31.7 6.9 48.5-1.9 10.4-4.4 16.5-9.9 24.8-8.7 13-22.9 23.9-37.8 29-2.9 1-5.3 2.2-5.5 2.8-.2.5 2 2.2 4.9 3.8 8.8 4.8 20.2 17.5 32.2 35.6 19.4 29.5 46.6 71.8 46.6 72.5 0 .2-14.6.4-32.4.4h-32.3l-12.4-20.2c-33.4-55-36-59-42.8-65.8-7.9-7.8-11.5-9.3-23.8-9.8l-10.3-.4V372h-57V246.5Zm89-13.6c21.3-3.4 34-18.5 32.8-38.8-1-16.7-9.4-25.9-26.8-29.7-4.6-.9-32.6-1.7-35.6-1l-2.4.6v70h12.8c7 0 15.6-.5 19.2-1.1ZM605 246.5V121l28.3.2 28.2.3v250l-28.2.3-28.3.2V246.5ZM776.9 369.3c-.6-1.6-5.6-16.1-11.1-32.3-5.5-16.2-14-41.2-18.9-55.5-11.7-34-21.9-64-36.7-107.5-6.6-19.5-13.4-39.2-15-43.8-2.2-5.9-2.8-8.4-1.9-8.8.7-.2 14.4-.3 30.6-.2l29.4.3 1.7 5.5c4.5 14 9.3 29.8 13.4 44 7.1 24.6 10.6 36.3 11.6 38.5.5 1.1 2.7 8.3 4.9 16 5.5 19.5 8.5 29.6 14.1 47.5 7.8 24.9 11 37.2 11 42.5 0 6.2 1.7 3.7 3.4-5.1 1-4.7 2.8-11.8 4-15.7 1.3-4 4.3-13.7 6.6-21.7 6.7-23.2 13-44.1 14.9-50 1-3 2.6-8 3.4-11 4.9-17.1 11.2-38 14.7-49 2.1-6.9 5.7-18.7 7.9-26.3 2.2-7.6 4.3-14.2 4.6-14.7.4-.6 12.3-1 29.6-1 24.1 0 28.9.2 28.9 1.4 0 .8-2.7 9.2-6 18.8-3.3 9.5-9.4 27-13.5 38.8-4 11.8-11.6 33.9-16.9 49-5.2 15.1-13.8 40.1-19.1 55.5-15.1 43.8-24.3 70.3-27.4 79l-2.9 8-32.1.3-32.1.2-1.1-2.7ZM914 371.3c0-.8 4.5-13.3 9.5-26.8 1.5-3.8 5.6-15.1 9.1-25 3.6-9.9 8.7-23.8 11.4-31 2.7-7.1 8.3-22.4 12.5-34 4.2-11.5 8.6-23.5 9.7-26.5 1.1-3 4.9-13.6 8.4-23.5 3.6-9.9 6.9-18.9 7.3-20 1.4-3 3.6-9.2 11.1-30 3.8-10.4 8-22.1 9.4-26 1.4-3.8 2.6-7.1 2.6-7.2 0-.2 15.2-.3 33.9-.3h33.8l3.8 10.8c2.1 5.9 6.6 18.4 10 27.7 3.4 9.4 7.9 21.7 9.8 27.5 2 5.8 5 14.3 6.7 19 1.8 4.7 6.1 16.8 9.7 27 3.5 10.2 8.6 24.4 11.3 31.5 2.6 7.2 5.5 15 6.3 17.5 3.1 9 13.7 38.7 17.2 48.5 2.1 5.5 5.9 16.3 8.5 24 2.7 7.7 5.1 14.8 5.5 15.8.7 1.6-1.2 1.7-30.3 1.7h-30.9l-3.2-10.2c-7.6-24.3-14.3-44.3-15.3-45.5-1.5-1.9-87.1-1.9-88.6 0-.5.6-1.5 3.2-2.2 5.7-.6 2.5-3.8 12.4-6.9 22-3.2 9.6-6.5 19.8-7.3 22.5l-1.5 5-30.7.3c-16.8.1-30.6-.1-30.6-.5Zm154.4-101.5c-.3-1.3-3.2-10.4-6.4-20.3-22.4-69.5-22.3-69-23.5-78.7-.8-6-2.5-6.3-2.5-.5 0 5.3-2.2 13.2-11.5 41.7-13.1 40.1-19.1 59.1-18.6 59.6.2.2 14.6.4 31.8.4h31.4l-.7-2.2ZM1464 327.9v-44.2l-8.9-18.1c-4.9-10-15.8-32.3-24.4-49.6-31.6-64.2-45.7-93.3-45.7-94.1 0-.5 14.3-.9 31.8-.9h31.8l1.9 3.8c2.1 4.3 7.2 15.9 15.5 35.2 3.2 7.4 9.5 22.1 14 32.5 8.4 19.5 14.2 35 13.3 35.8-.2.3.5 1 1.6 1.7 1.7.8 2.2.8 2.5-.2.2-.7.9-3.5 1.5-6.2 1.2-4.8 5-14.1 20.6-49.6 4.3-9.6 9-20.4 10.5-24 1.6-3.6 5-11.4 7.7-17.5l4.9-11 29.7-.3c18-.1 29.7.1 29.7.7 0 1-15.6 32-45.5 90.6-9.2 18.2-21 41.4-26.2 51.6l-9.3 18.7V372h-57v-44.1Z"/><path fill="#7F1719" d="M1712 374.4c-18-3-37.1-11.6-51.2-23.1-23.7-19.3-38.3-44.9-43.3-76-2-12.2-2-39.2 0-52.6 4.1-27.6 15.6-51.6 33.4-70 16-16.5 29-23.9 57.6-32.7 12.8-3.9 44.5-4.7 59.5-1.6 36.5 7.7 64.9 29.4 81.2 62.1 15.5 30.9 17.7 79.1 5.3 116.2-5.2 15.7-15.8 32.5-28.5 45.3-23.6 23.9-50.6 34.1-89.6 33.9-8.8-.1-19.7-.7-24.4-1.5Zm35.7-47.4c20.2-2.6 36.1-14 45.3-32.4 7.4-14.9 8.4-20.7 8.4-47.6 0-22.2-.2-24-2.6-33-3.2-11.7-4.5-14.6-10.9-24.5-3.8-5.9-13.8-14.7-20.1-17.8-16-7.9-37.6-8.2-53.3-.8-13.2 6.1-23.6 16.9-30.4 31.3-9.9 21.1-11.5 53-4 79.3 2.4 8.3 9.3 20.5 15.9 27.9 6.7 7.5 18.7 14.4 29 16.5 11.1 2.2 13.2 2.3 22.7 1.1ZM1904 246.5V121h73c40.2 0 73 .3 73 .8 0 .4.1 10.6.1 22.7l.1 22-44.3.5-44.4.5v60l40.8.3 40.7.2-.2 22.8-.3 22.7-40.7.3-40.8.2v98h-57V246.5ZM2092 246.5V121h145v46h-43.9c-28.2 0-44.1.4-44.3 1-.1.5-.2 14.3 0 30.5l.3 29.5h80.9l-.2 22.8-.3 22.7-40.2.3-40.3.2-.2 48.8-.3 48.7-28.2.3-28.3.2V246.5ZM1494.2 231.5c-1.1-2.4-1-2.5.8-1.5 1.1.6 2 1.7 2 2.5 0 2.3-1.6 1.7-2.8-1ZM258 122c0-.5.7-1 1.5-1s1.5.5 1.5 1c0 .6-.7 1-1.5 1s-1.5-.4-1.5-1Z"/></svg>