<svg xmlns="http://www.w3.org/2000/svg" viewBox="0 0 640 512"><path fill="currentColor" d="M128 128a96 96 0 1 1 192 0 96 96 0 1 1-192 0zm141.7 208c80 0 145 64.3 146.3 144H32c1.2-79.7 66.2-144 146.3-144h91.4zM224 256a128 128 0 1 0 0-256 128 128 0 1 0 0 256zm-45.7 48C79.8 304 0 383.8 0 482.3 0 498.7 13.3 512 29.7 512h388.6c16.4 0 29.7-13.3 29.7-29.7 0-98.5-79.8-178.3-178.3-178.3h-91.4zm333.7 0c0 8.8 7.2 16 16 16s16-7.2 16-16v-80h80c8.8 0 16-7.2 16-16s-7.2-16-16-16h-80v-80c0-8.8-7.2-16-16-16s-16 7.2-16 16v80h-80c-8.8 0-16 7.2-16 16s7.2 16 16 16h80v80z"/></svg>