<svg xmlns="http://www.w3.org/2000/svg" viewBox="0 0 640 512"><path fill="currentColor" d="M576 182.9v256c0 20.2-16.3 36.6-36.6 36.6H100.5c-20.2 0-36.6-16.3-36.6-36.6v-256h512zm0-36.6H464.7l99.8-99.8c7.1 6.6 11.5 16.1 11.5 26.6v73.1zm-285 0L400.7 36.6h122.1L413.1 146.3H291zm-51.8 0H117.3L227 36.6h122.1L239.4 146.3h-.1zM100.5 36.6h74.7L65.5 146.3h-1.6V73.2c0-20.2 16.3-36.6 36.6-36.6zm512 109.7V73.2C612.6 32.8 579.8 0 539.4 0H100.5C60.2 0 27.4 32.8 27.4 73.1v365.7c0 40.3 32.8 73.1 73.1 73.1h438.9c40.3 0 73.1-32.8 73.1-73.1V146.2zm-338.1 75.6c-5.6-3.3-12.7-3.3-18.4-.1s-9.3 9.3-9.3 15.9v182.9c0 6.5 3.5 12.6 9.3 15.9s12.7 3.2 18.4-.1L429.8 345c5.6-3.3 9-9.3 9-15.8s-3.4-12.5-9-15.8l-155.4-91.5zm110 107.2-101 59.4V269.6l101 59.4z"/></svg>