<svg xmlns="http://www.w3.org/2000/svg" version="1.1" xmlns:xlink="http://www.w3.org/1999/xlink" width="292" height="292"><svg width="292" height="292" viewBox="0 0 292 292" fill="none" xmlns="http://www.w3.org/2000/svg">
<path d="M0 145.8C0 226.323 65.2769 291.6 145.8 291.6V291.6C226.323 291.6 291.6 226.323 291.6 145.8V145.8C291.6 65.2769 226.323 0 145.8 0V0C65.2769 0 0 65.2769 0 145.8V145.8Z" fill="#E7000B"></path>
<g clip-path="url(#clip0_350_13)">
<path fill-rule="evenodd" clip-rule="evenodd" d="M93.5025 133.629C87.9429 84.3707 117.024 49.725 171.538 30C138.149 72.8706 199.996 119.316 203.406 163.842C211.4 150.346 215.937 132.322 216.835 108.247C257.71 171.722 223.825 275.46 133.868 260.553C125.609 259.187 117.652 256.606 110.397 252.764C77.5983 235.416 58 197.64 58 161.56C58 138.565 67.9367 118.032 80.7975 101.719C82.5163 117.701 86.1738 129.623 93.5025 133.629Z" fill="white"></path>
<path fill-rule="evenodd" clip-rule="evenodd" d="M121.782 198.983C111.776 172.825 113.16 130.594 141.183 115.777C141.38 164.332 188.653 170.506 179.885 222.341C187.97 213.091 192.035 198.288 192.764 186.616C205.579 216.276 195.532 240.02 177.268 252.11C121.74 288.856 73.9225 214.352 105.717 173.51C106.67 182.615 117.698 196.701 121.782 198.983Z" fill="#82181A"></path>
</g>
<defs>
<clipPath id="SvgjsClipPath1012">
<rect width="176" height="232" fill="white" transform="translate(58 30)"></rect>
</clipPath>
</defs>
</svg><style>@media (prefers-color-scheme: light) { :root { filter: none; } }
@media (prefers-color-scheme: dark) { :root { filter: none; } }
</style></svg>